<?xml version="1.0" encoding="UTF-8"?><svg id="uuid-bd9d4ec3-2f85-4ab0-8b3b-49a4be6423da" xmlns="http://www.w3.org/2000/svg" viewBox="0 0 43.63 31.87"><path d="M2.95,6.83L5.89,0h2.85l2.97,6.83c.48,1.1.97,2.22,1.47,3.37.5,1.14.88,2.02,1.14,2.62l.38.91s-.12.03-.42.04c-.3,0-.77.01-1.43.01l-1.89-.02c-.51-1.21-.89-2.13-1.13-2.73-.56-.02-1.41-.02-2.54-.02s-1.98,0-2.54-.02c-.3.78-.65,1.72-1.03,2.83h-1.87c-1.25,0-1.87-.02-1.87-.05,0-.02.98-2.32,2.95-6.92ZM8.89,8.22s-.24-.71-.72-2.09c-.48-1.37-.73-2.07-.74-2.08-.02-.02-.06.06-.14.24-.08.18-.18.43-.31.77-.13.34-.26.69-.41,1.05l-.79,2.16h1.56c1.04,0,1.56-.02,1.56-.05Z"/><path d="M17.23,12.58c0-.32.05-2.33.16-6.03.1-3.7.16-5.71.16-6.02v-.53h3.33c2.24,0,3.52.06,3.86.17.56.19,1.07.49,1.55.89.47.4.81.85,1.02,1.34.13.3.19.63.19.98,0,1.01-.34,1.85-1.03,2.54l-.43.43.43.29c1.13.75,1.7,1.83,1.7,3.23,0,.26,0,.45-.02.58-.21,1.6-1.12,2.64-2.73,3.14-.3.1-.69.16-1.16.18-.47.02-1.55.04-3.25.04h-3.76v-1.22ZM23.93,2.64c-.18-.11-.36-.18-.56-.2-.2-.02-.67-.04-1.4-.04h-1.61v2.97l1.39-.07c.77-.03,1.32-.09,1.65-.18s.62-.24.84-.44c.24-.24.36-.53.36-.86,0-.5-.22-.89-.67-1.17ZM24.58,7.57c-.24-.1-.97-.14-2.18-.14h-1.82v3.35l1.85-.02c1.23-.02,1.96-.1,2.2-.24.46-.26.69-.78.69-1.58,0-.7-.25-1.16-.74-1.37Z"/><path d="M35.87.17c.46-.1.96-.14,1.49-.14,1.01,0,1.88.15,2.64.45.7.26,1.43.79,2.18,1.61.34.37.65.82.93,1.34.29.53.45.95.48,1.27l.05.43h-2.83l-.14-.36c-.1-.22-.37-.56-.82-1.01-.3-.3-.54-.51-.71-.61-.17-.1-.43-.21-.78-.32-.43-.14-.84-.22-1.22-.22-.51,0-1.01.13-1.48.38-.64.34-1.16.87-1.57,1.62s-.61,1.51-.61,2.29c0,.29.04.59.12.91.22.89.68,1.59,1.38,2.1.7.5,1.47.75,2.31.75,1.42,0,2.5-.62,3.23-1.87l.31-.53h2.78v.24c0,.18-.07.5-.21.96-.69,2.27-2.06,3.67-4.12,4.19-.38.11-.96.17-1.73.17s-1.49-.06-2.08-.19c-1.2-.26-2.19-.77-2.97-1.53-.66-.62-1.16-1.42-1.51-2.4-.13-.37-.21-.67-.24-.92-.03-.25-.05-.77-.05-1.57,0-1.16.07-1.97.22-2.42.38-1.2,1.01-2.2,1.89-3.02.88-.82,1.9-1.35,3.07-1.61Z"/><path d="M7.65,22.14c.3-.06.7-.1,1.17-.1.77,0,1.4.09,1.89.26,1.21.45,2,1.48,2.35,3.09.14.61.39,2.63.74,6.06l.07.41h-3.07v-.43c0-.27-.02-.4-.07-.38-.83.42-1.5.66-2.01.72-.29.03-.5.05-.65.05-.89,0-1.67-.23-2.32-.68-.66-.45-1.07-1.06-1.25-1.81-.06-.21-.1-.45-.1-.72,0-.72.26-1.35.78-1.9s1.23-.95,2.12-1.19c.42-.1,1.01-.14,1.77-.14.59,0,.98.03,1.17.1.13.03.22.05.29.06.06,0,.11,0,.14-.04,0-.08-.1-.25-.31-.52-.21-.26-.38-.43-.5-.51-.35-.16-.7-.24-1.03-.24-.61,0-1.23.17-1.87.5l-.65.31-.26-.34c-.11-.11-.32-.42-.62-.91l-.36-.58.24-.17c.42-.35,1.19-.66,2.32-.91ZM10.29,27.26c-.32-.08-.7-.12-1.15-.12-1.05,0-1.69.2-1.89.6-.1.16-.14.32-.14.48,0,.32.15.58.44.79.3.21.67.31,1.11.31.19,0,.4-.02.62-.07,1.02-.24,1.53-.77,1.53-1.58,0-.14-.03-.23-.08-.27-.06-.04-.2-.08-.44-.13Z"/><path d="M16.76,19.65s.13-.05.38-.05c.43,0,.77.03,1.03.1.49.1.82.21.98.34.05.05.1.1.17.17l.31.31.05,1.53.02,1.51.6-.41c.7-.48,1.48-.72,2.32-.72.91,0,1.73.29,2.46.86.73.58,1.22,1.36,1.47,2.35.11.4.17.97.17,1.7,0,.5-.03.89-.1,1.2-.13.62-.4,1.19-.83,1.71s-.94.92-1.55,1.21c-.48.22-1.01.34-1.61.34-.85,0-1.59-.21-2.23-.62l-.36-.24-.02.38-.05.41-1.48.07-1.53.02s.04-1.69.22-4.98c.11-2.49.17-3.88.17-4.17,0-.72-.1-1.08-.31-1.08-.03,0-.11.02-.24.05l-.34.07.14-1.01.14-1.05ZM22.96,24.77c-.24-.1-.58-.14-1.01-.14s-.72.05-.91.14c-.18.11-.4.36-.67.74-.29.42-.44.85-.46,1.32,0,.05,0,.11-.01.19s-.01.14-.01.17c0,.29.07.58.22.89.19.4.46.71.82.92.35.22.73.32,1.15.32.59,0,1.12-.22,1.58-.65.45-.45.67-.96.67-1.53,0-.54-.13-1.03-.38-1.47-.26-.44-.58-.74-.98-.9Z"/><path d="M32.96,21.71c.27-.08.75-.12,1.44-.12s1.17.04,1.46.12c.59.16,1.15.44,1.67.85.52.41.91.87,1.16,1.38.29.61.43,1.12.43,1.53,0,.06,0,.1-.02.12-.02.05-.45.07-1.29.07h-1.25l-.12-.43c-.13-.43-.39-.79-.79-1.08-.4-.29-.82-.43-1.27-.43-.21,0-.36.02-.46.05-.66.18-1.15.57-1.48,1.17-.18.3-.26.77-.26,1.41,0,.7.11,1.23.32,1.59.22.36.59.64,1.14.85.21.08.45.12.72.12.45,0,.86-.12,1.23-.35.38-.23.64-.54.8-.92l.17-.38.74.05c1.25.08,1.87.18,1.87.29,0,.1-.06.34-.17.74-.45,1.66-1.46,2.68-3.04,3.04-.4.1-.95.14-1.65.14s-1.26-.05-1.63-.14c-1.04-.3-1.86-.9-2.47-1.79-.61-.89-.91-1.88-.91-2.98,0-.93.22-1.8.67-2.64.29-.51.7-.97,1.23-1.39s1.12-.71,1.76-.89Z"/></svg>