<svg width="36" height="13" viewBox="0 0 36 13" fill="none" xmlns="http://www.w3.org/2000/svg">
<path d="M3.25 2.4999C3.55 2.4399 3.95 2.3999 4.42 2.3999C5.19 2.3999 5.82 2.4899 6.31 2.6599C7.52 3.1099 8.31 4.1399 8.66 5.7499C8.8 6.3599 9.05 8.3799 9.4 11.8099L9.47 12.2199H6.4V11.7899C6.4 11.5199 6.38 11.3899 6.33 11.4099C5.5 11.8299 4.83 12.0699 4.32 12.1299C4.03 12.1599 3.82 12.1799 3.67 12.1799C2.78 12.1799 2 11.9499 1.35 11.4999C0.69 11.0499 0.28 10.4399 0.0999999 9.6899C0.0399999 9.4799 0 9.2399 0 8.9699C0 8.2499 0.26 7.6199 0.78 7.0699C1.3 6.5199 2.01 6.1199 2.9 5.8799C3.32 5.7799 3.91 5.7399 4.67 5.7399C5.26 5.7399 5.65 5.7699 5.84 5.8399C5.97 5.8699 6.06 5.8899 6.13 5.8999C6.19 5.8999 6.24 5.8999 6.27 5.8599C6.27 5.7799 6.17 5.6099 5.96 5.3399C5.75 5.0799 5.58 4.9099 5.46 4.8299C5.11 4.6699 4.76 4.5899 4.43 4.5899C3.82 4.5899 3.2 4.7599 2.56 5.0899L1.91 5.3999L1.65 5.0599C1.54 4.9499 1.33 4.6399 1.03 4.1499L0.67 3.5699L0.91 3.3999C1.33 3.0499 2.1 2.7399 3.23 2.4899L3.25 2.4999ZM5.89 7.6199C5.57 7.5399 5.19 7.4999 4.74 7.4999C3.69 7.4999 3.05 7.6999 2.85 8.0999C2.75 8.2599 2.71 8.4199 2.71 8.5799C2.71 8.8999 2.86 9.1599 3.15 9.3699C3.45 9.5799 3.82 9.6799 4.26 9.6799C4.45 9.6799 4.66 9.6599 4.88 9.6099C5.9 9.3699 6.41 8.8399 6.41 8.0299C6.41 7.8899 6.38 7.7999 6.33 7.7599C6.27 7.7199 6.13 7.6799 5.89 7.6299V7.6199Z" fill="black"/>
<path d="M12.77 0.0499992C12.77 0.0499992 12.9 0 13.15 0C13.58 0 13.92 0.0300004 14.18 0.1C14.67 0.2 15 0.310001 15.16 0.440001C15.21 0.490001 15.26 0.539999 15.33 0.609999L15.64 0.92L15.69 2.45L15.71 3.96L16.31 3.55C17.01 3.07 17.79 2.83 18.63 2.83C19.54 2.83 20.36 3.12 21.09 3.69C21.82 4.27 22.31 5.05 22.56 6.04C22.67 6.44 22.73 7.01 22.73 7.74C22.73 8.24 22.7 8.63 22.63 8.94C22.5 9.56 22.23 10.13 21.8 10.65C21.37 11.17 20.86 11.57 20.25 11.86C19.77 12.08 19.24 12.2 18.64 12.2C17.79 12.2 17.05 11.99 16.41 11.58L16.05 11.34L16.03 11.72L15.98 12.13L14.5 12.2L12.97 12.22C12.97 12.22 13.01 10.53 13.19 7.24C13.3 4.75 13.36 3.36 13.36 3.07C13.36 2.35 13.26 1.99 13.05 1.99C13.02 1.99 12.94 2.01 12.81 2.04L12.47 2.11L12.61 1.1L12.75 0.0499992H12.77ZM18.97 5.17C18.73 5.07 18.39 5.03 17.96 5.03C17.53 5.03 17.24 5.08 17.05 5.17C16.87 5.28 16.65 5.53 16.38 5.91C16.09 6.33 15.94 6.76 15.92 7.23C15.92 7.28 15.92 7.34 15.91 7.42C15.9 7.5 15.9 7.56 15.9 7.59C15.9 7.88 15.97 8.17 16.12 8.48C16.31 8.88 16.58 9.19 16.94 9.4C17.29 9.62 17.67 9.72 18.09 9.72C18.68 9.72 19.21 9.5 19.67 9.07C20.12 8.62 20.34 8.11 20.34 7.54C20.34 7 20.21 6.51 19.96 6.07C19.7 5.63 19.38 5.33 18.98 5.17H18.97Z" fill="black"/>
<path d="M29.39 2.41004C29.66 2.33004 30.14 2.29004 30.83 2.29004C31.52 2.29004 32 2.33004 32.29 2.41004C32.88 2.57004 33.44 2.85004 33.96 3.26004C34.48 3.67004 34.87 4.13004 35.12 4.64004C35.41 5.25004 35.55 5.76004 35.55 6.17004C35.55 6.23004 35.55 6.27004 35.53 6.29004C35.51 6.34004 35.08 6.36004 34.24 6.36004H32.99L32.87 5.93004C32.74 5.50004 32.48 5.14004 32.08 4.85004C31.68 4.56004 31.26 4.42004 30.81 4.42004C30.6 4.42004 30.45 4.44004 30.35 4.47004C29.69 4.65004 29.2 5.04004 28.87 5.64004C28.69 5.94004 28.61 6.41004 28.61 7.05004C28.61 7.75004 28.72 8.28004 28.93 8.64004C29.15 9.00004 29.52 9.28004 30.07 9.49004C30.28 9.57004 30.52 9.61004 30.79 9.61004C31.24 9.61004 31.65 9.49004 32.02 9.26004C32.4 9.03004 32.66 8.72004 32.82 8.34004L32.99 7.96004L33.73 8.01004C34.98 8.09004 35.6 8.19004 35.6 8.30004C35.6 8.40004 35.54 8.64004 35.43 9.04004C34.98 10.7 33.97 11.72 32.39 12.08C31.99 12.18 31.44 12.22 30.74 12.22C30.04 12.22 29.48 12.17 29.11 12.08C28.07 11.78 27.25 11.18 26.64 10.29C26.03 9.40004 25.73 8.41004 25.73 7.31004C25.73 6.38004 25.95 5.51004 26.4 4.67004C26.69 4.16004 27.1 3.70004 27.63 3.28004C28.16 2.86004 28.75 2.57004 29.39 2.39004V2.41004Z" fill="black"/>
</svg>
